<svg width="196" height="27" viewBox="0 0 196 27" fill="none" xmlns="http://www.w3.org/2000/svg">
<path fill-rule="evenodd" clip-rule="evenodd" d="M11.0116 26.9181C7.08164 26.9181 3.11455 25.5349 0 22.7309L3.37405 18.6557C5.70958 20.5998 8.1568 21.8335 11.1228 21.8335C13.4586 21.8335 14.8675 20.8989 14.8675 19.3661V19.2914C14.8675 17.8332 13.9776 17.0854 9.63979 15.9641C4.41207 14.618 1.03801 13.1601 1.03801 7.9633V7.88865C1.03801 3.14058 4.81989 0 10.1219 0C13.9035 0 17.1293 1.19651 19.7617 3.3276L16.7955 7.66418C14.4968 6.05643 12.2351 5.08465 10.0476 5.08465C7.86015 5.08465 6.7107 6.09415 6.7107 7.36531V7.43996C6.7107 9.15955 7.82301 9.72062 12.3094 10.8797C17.574 12.2627 20.5402 14.1693 20.5402 18.7303V18.8053C20.5402 24.0018 16.61 26.9181 11.0116 26.9181Z" transform="translate(0 0.0817871)" fill="white"/>
<path fill-rule="evenodd" clip-rule="evenodd" d="M51.2741 26.7312H46.3059L40.4477 9.60833L34.5898 26.7312H29.6216L20.7603 0.374129H26.878L32.254 18.095L38.0748 0.299216H42.969L48.79 18.095L54.166 0.374129H60.1351L51.2741 26.7312Z" transform="translate(0 0.0817871)" fill="white"/>
<path fill-rule="evenodd" clip-rule="evenodd" d="M62.2821 26.5441H67.992V0.374035H62.2821V26.5441Z" transform="translate(0 0.0817871)" fill="white"/>
<path fill-rule="evenodd" clip-rule="evenodd" d="M91.3837 26.5441V9.45874L84.0797 20.637H83.9314L76.7017 9.57085V26.5441H71.103V0.374099H77.2576L84.0797 11.4403L90.9018 0.374099H97.0564V26.5441H91.3837Z" transform="translate(0 0.0817871)" fill="white"/>
<path fill-rule="evenodd" clip-rule="evenodd" d="M100.167 26.5441V0.374099H105.876V21.3102H118.816L116.738 26.5441H100.167Z" transform="translate(0 0.0817871)" fill="white"/>
<path fill-rule="evenodd" clip-rule="evenodd" d="M133.273 7.10348L129.825 15.5899H136.721L133.273 7.10348ZM141.134 26.5442L138.761 20.6746H127.786L125.413 26.5442H119.592L130.715 0.187178H135.98L147.103 26.5442H141.134Z" transform="translate(0 0.0817871)" fill="white"/>
<path fill-rule="evenodd" clip-rule="evenodd" d="M168.011 26.5441L155.443 9.90717V26.5441H149.807V0.374099H155.072L167.233 16.4872V0.374099H172.868V26.5441H168.011Z" transform="translate(0 0.0817871)" fill="white"/>
<path fill-rule="evenodd" clip-rule="evenodd" d="M176.239 26.5441V0.374099H195.815V5.49595H181.911V10.8046H194.146V15.9267H181.911V21.4223H196V26.5441H176.239Z" transform="translate(0 0.0817871)" fill="white"/>
</svg>
