<svg width="2039" height="1156" viewBox="0 0 2039 1156" version="1.1" xmlns="http://www.w3.org/2000/svg" xmlns:xlink="http://www.w3.org/1999/xlink" shape-rendering="geometricPrecision">
<g id="Canvas" fill="none">
<g id="login-background" clip-path="url(#clip0)">
<rect width="2039" height="1156" fill="white"/>
<g id="art">
<g id="base" filter="url(#filter0_dd)">
<rect width="2039" height="1156" fill="url(#paint0_radial)"/>
</g>
<path id="trap_14" d="M 19.9141 0L 433.875 7.88942L 413.961 42.1199L -6.44152e-05 34.2305L 19.9141 0Z" transform="matrix(0.846142 -0.532958 0.532981 0.846127 1275.44 928.078)" fill="url(#paint1_radial)"/>
<path id="trap_12" d="M 43.2474 3.09955C 43.6042 2.48625 44.2592 2.1079 44.9687 2.10528L 611.593 0.0128423C 613.139 0.0071339 614.107 1.68239 613.33 3.01855L 571.838 74.3379C 571.481 74.9512 570.826 75.3295 570.117 75.3321L 3.49225 77.4246C 1.94643 77.4303 0.978787 75.755 1.75612 74.4189L 43.2474 3.09955Z" transform="matrix(0.864377 -0.502844 0.502866 0.864364 1318 768.292)" fill="url(#paint2_radial)"/>
<path id="trap_11" d="M 43.2492 4.48363C 43.605 3.87204 44.2575 3.49396 44.9651 3.4894L 582.292 0.0226037C 583.84 0.0126145 584.812 1.69 584.034 3.02828L 542.546 74.3411C 542.19 74.9527 541.538 75.3308 540.83 75.3353L 3.50339 78.8021C 1.95513 78.8121 0.983184 77.1347 1.76176 75.7964L 43.2492 4.48363Z" transform="matrix(0.864377 -0.502844 0.502866 0.864364 460.152 757.064)" fill="url(#paint3_radial)"/>
<path id="trap_10" d="M 43.8233 10.5907L 700.121 0L 656.298 75.3279L -5.39412e-05 85.9186L 43.8233 10.5907Z" transform="matrix(0.864377 -0.502844 0.502866 0.864364 1046 889.52)" fill="url(#paint4_radial)" fill-opacity="0.65"/>
<path id="trap_9" d="M 43.8233 10.5907L 700.121 0L 656.298 75.3279L -5.39412e-05 85.9186L 43.8233 10.5907Z" transform="matrix(0.864377 -0.502844 0.502866 0.864364 228.817 840.926)" fill="url(#paint5_radial)" fill-opacity="0.65"/>
<path id="trap_8" d="M 43.8233 10.5907L 700.121 0L 656.298 75.3279L -5.39412e-05 85.9186L 43.8233 10.5907Z" transform="matrix(0.864377 -0.502844 0.502866 0.864364 1869 720.127)" fill="url(#paint6_radial)"/>
<path id="trap_6" d="M 31.3962 1.00408C 31.7574 0.383252 32.4237 0.00376722 33.1419 0.00986969L 193.571 1.37299C 195.106 1.38603 196.055 3.05184 195.283 4.37864L 165.618 55.3692C 165.257 55.99 164.591 56.3695 163.873 56.3634L 3.44331 55.0003C 1.90838 54.9872 0.959681 53.3214 1.73157 51.9946L 31.3962 1.00408Z" transform="matrix(0.864377 -0.502844 0.502866 0.864364 1365 603.067)" fill="#00FFF4"/>
<path id="trap_5" d="M 31.4033 1.23785C 31.7607 0.623567 32.4172 0.245065 33.1278 0.243574L 145.727 0.00732965C 147.272 0.00408935 148.237 1.67811 147.46 3.01305L 117.81 53.9791C 117.452 54.5934 116.796 54.9719 116.085 54.9734L 3.48581 55.2097C 1.9414 55.2129 0.97626 53.5389 1.75288 52.204L 31.4033 1.23785Z" transform="matrix(0.864377 -0.502844 0.502866 0.864364 972 408.031)" fill="url(#paint7_radial)"/>
<path id="trap_4" d="M 22.9893 0.996355C 23.3481 0.379712 24.0081 0.000846067 24.7215 0.00207886L 194.861 0.296087C 196.402 0.29875 197.361 1.96981 196.586 3.30181L 175.342 39.8183C 174.983 40.4349 174.323 40.8138 173.61 40.8126L 3.47051 40.5186C 1.92951 40.5159 0.970324 38.8448 1.74523 37.5128L 22.9893 0.996355Z" transform="matrix(0.864377 -0.502844 0.502866 0.864364 287.934 779.249)" fill="url(#paint8_radial)"/>
<g id="circle_5" filter="url(#filter1_d)">
<path d="M 34.034 17.7344C 34.034 26.7358 26.7367 34.033 17.7349 34.033C 8.73312 34.033 1.4358 26.7358 1.4358 17.7344C 1.4358 8.73296 8.73312 1.4358 17.7349 1.4358C 26.7367 1.4358 34.034 8.73296 34.034 17.7344Z" transform="translate(1665 432)" stroke-width="2.87159" stroke="url(#paint9_linear)"/>
</g>
<g id="trap_2" opacity="0.2" filter="url(#filter2_d)">
<mask id="path-12-inside-1" fill="white">
<path d="M 404.026 2.03426C 404.747 0.778118 406.091 0.0100294 407.539 0.0262201L 1579.36 13.1255C 1582.42 13.1597 1584.31 16.4675 1582.79 19.117L 1182.16 716.872C 1181.44 718.128 1180.09 718.896 1178.64 718.88L 6.82049 705.781C 3.76555 705.747 1.8751 702.439 3.39634 699.789L 404.026 2.03426Z"/>
</mask>
<g mask="url(#path-12-inside-1)" transform="matrix(0.864377 -0.502844 0.502866 0.864364 -365.302 1011.6)">
<path d="M 6.82049 705.781L 6.84133 703.916L 6.82049 705.781ZM 3.39634 699.789L 1.7793 698.861L 3.39634 699.789ZM 1182.16 716.872L 1180.54 715.943L 1182.16 716.872ZM 1178.64 718.88L 1178.67 717.015L 1178.64 718.88ZM 1582.79 19.117L 1581.17 18.1885L 1582.79 19.117ZM 407.539 0.0262201L 407.519 1.89073L 407.539 0.0262201ZM 404.026 2.03426L 405.643 2.96271L 404.026 2.03426ZM 407.519 1.89073L 1579.34 14.99L 1579.39 11.261L 407.56 -1.83829L 407.519 1.89073ZM 1581.17 18.1885L 1180.54 715.943L 1183.78 717.8L 1584.41 20.0455L 1581.17 18.1885ZM 1178.67 717.015L 6.84133 703.916L 6.79965 707.645L 1178.62 720.744L 1178.67 717.015ZM 5.01338 700.718L 405.643 2.96271L 402.409 1.1058L 1.7793 698.861L 5.01338 700.718ZM 6.84133 703.916C 5.21048 703.898 4.20127 702.132 5.01338 700.718L 1.7793 698.861C -0.451069 702.745 2.32062 707.595 6.79965 707.645L 6.84133 703.916ZM 1180.54 715.943C 1180.16 716.614 1179.44 717.024 1178.67 717.015L 1178.62 720.744C 1180.75 720.768 1182.72 719.642 1183.78 717.8L 1180.54 715.943ZM 1579.34 14.99C 1580.97 15.0083 1581.98 16.7742 1581.17 18.1885L 1584.41 20.0455C 1586.64 16.1609 1583.86 11.3111 1579.39 11.261L 1579.34 14.99ZM 407.56 -1.83829C 405.437 -1.86203 403.466 -0.735891 402.409 1.1058L 405.643 2.96271C 406.028 2.29213 406.745 1.88209 407.519 1.89073L 407.56 -1.83829Z" fill="url(#paint10_linear)"/>
</g>
</g>
<path id="trap_1" d="M 31.4033 1.23785C 31.7607 0.623567 32.4172 0.245065 33.1278 0.243574L 145.727 0.00732965C 147.272 0.00408935 148.237 1.67811 147.46 3.01305L 117.81 53.9791C 117.452 54.5934 116.796 54.9719 116.085 54.9734L 3.48581 55.2097C 1.9414 55.2129 0.97626 53.5389 1.75288 52.204L 31.4033 1.23785Z" transform="matrix(0.864377 -0.502844 0.502866 0.864364 -49 1004.32)" fill="#00FFF4"/>
<g id="circle_3" filter="url(#filter3_d)">
<path d="M 50.7945 25.8626C 50.7945 39.6312 39.6325 50.7929 25.8634 50.7929C 12.0943 50.7929 0.932315 39.6312 0.932315 25.8626C 0.932315 12.094 12.0943 0.932315 25.8634 0.932315C 39.6325 0.932315 50.7945 12.094 50.7945 25.8626Z" transform="translate(108 697)" stroke-width="1.86463" stroke="url(#paint11_linear)"/>
</g>
<g id="circle_2" filter="url(#filter4_d)">
<path d="M 23.6894 12.5618C 23.6894 18.707 18.7077 23.6887 12.5622 23.6887C 6.41679 23.6887 1.435 18.707 1.435 12.5618C 1.435 6.4167 6.41679 1.435 12.5622 1.435C 18.7077 1.435 23.6894 6.4167 23.6894 12.5618Z" transform="translate(1820 781)" stroke-width="2.87" stroke="url(#paint12_linear)"/>
</g>
<g id="circle_1" filter="url(#filter5_d)">
<path d="M 24.1244 12.5618C 24.1244 18.9473 18.9479 24.1237 12.5622 24.1237C 6.17656 24.1237 1 18.9473 1 12.5618C 1 6.17644 6.17656 1 12.5622 1C 18.9479 1 24.1244 6.17644 24.1244 12.5618Z" transform="translate(235 289.076)" stroke-width="2" stroke="url(#paint13_linear)"/>
</g>
<g id="triangle_1" filter="url(#filter6_d)">
<path d="M 29.2559 5.02489C 29.8088 4.06716 31.1912 4.06716 31.7441 5.02489L 53.1842 42.1601C 53.7371 43.1178 53.0459 44.315 51.94 44.315L 9.05997 44.315C 7.95408 44.315 7.2629 43.1178 7.81585 42.1601L 29.2559 5.02489Z" transform="translate(617 1000)" stroke-width="2.87" stroke="url(#paint14_linear)"/>
</g>
<g id="square_2" filter="url(#filter7_d)">
<mask id="path-0-inside-2" fill="white">
<rect width="39.9035" height="39.9023" rx="1.86463"/>
</mask>
<g mask="url(#path-0-inside-2)" transform="translate(29.5354 991.011)">
<rect width="39.9035" height="39.9023" rx="1.86463" stroke-width="5.74319" stroke="url(#paint15_linear)"/>
</g>
</g>
<g id="square_1" filter="url(#filter8_d)">
<mask id="path-0-inside-3" fill="white">
<rect width="79.8071" height="79.8047" rx="1.86463"/>
</mask>
<g mask="url(#path-0-inside-3)" transform="translate(1435 805.068)">
<rect width="79.8071" height="79.8047" rx="1.86463" stroke-width="5.74319" stroke="url(#paint16_linear)"/>
</g>
</g>
</g>
</g>
</g>
<defs>
<filter id="filter0_dd" x="-15" y="-15" width="2069" height="1196" filterUnits="userSpaceOnUse" color-interpolation-filters="sRGB">
<feFlood flood-opacity="0" result="BackgroundImageFix"/>
<feColorMatrix in="SourceAlpha" type="matrix" values="0 0 0 0 0 0 0 0 0 0 0 0 0 0 0 0 0 0 255 0"/>
<feOffset dy="10"/>
<feGaussianBlur stdDeviation="7.5"/>
<feColorMatrix type="matrix" values="0 0 0 0 0.027451 0 0 0 0 0.0313726 0 0 0 0 0.0431373 0 0 0 0.03 0"/>
<feBlend mode="normal" in2="BackgroundImageFix" result="effect1_dropShadow"/>
<feColorMatrix in="SourceAlpha" type="matrix" values="0 0 0 0 0 0 0 0 0 0 0 0 0 0 0 0 0 0 255 0"/>
<feOffset/>
<feGaussianBlur stdDeviation="7.5"/>
<feColorMatrix type="matrix" values="0 0 0 0 0.027451 0 0 0 0 0.0313726 0 0 0 0 0.0431373 0 0 0 0.05 0"/>
<feBlend mode="normal" in2="effect1_dropShadow" result="effect2_dropShadow"/>
<feBlend mode="normal" in="SourceGraphic" in2="effect2_dropShadow" result="shape"/>
</filter>
<filter id="filter1_d" x="1650.64" y="417.642" width="64.1858" height="64.1847" filterUnits="userSpaceOnUse" color-interpolation-filters="sRGB">
<feFlood flood-opacity="0" result="BackgroundImageFix"/>
<feColorMatrix in="SourceAlpha" type="matrix" values="0 0 0 0 0 0 0 0 0 0 0 0 0 0 0 0 0 0 255 0"/>
<feOffset/>
<feGaussianBlur stdDeviation="7.17899"/>
<feColorMatrix type="matrix" values="0 0 0 0 0.00784314 0 0 0 0 0.666667 0 0 0 0 1 0 0 0 1 0"/>
<feBlend mode="normal" in2="BackgroundImageFix" result="effect1_dropShadow"/>
<feBlend mode="normal" in="SourceGraphic" in2="effect1_dropShadow" result="shape"/>
</filter>
<filter id="filter2_d" x="-24.3714" y="218.922" width="1050.71" height="1409.15" filterUnits="userSpaceOnUse" color-interpolation-filters="sRGB">
<feFlood flood-opacity="0" result="BackgroundImageFix"/>
<feColorMatrix in="SourceAlpha" type="matrix" values="0 0 0 0 0 0 0 0 0 0 0 0 0 0 0 0 0 0 255 0"/>
<feOffset/>
<feGaussianBlur stdDeviation="4.66157"/>
<feColorMatrix type="matrix" values="0 0 0 0 0.00784314 0 0 0 0 0.666667 0 0 0 0 1 0 0 0 1 0"/>
<feBlend mode="normal" in2="BackgroundImageFix" result="effect1_dropShadow"/>
<feBlend mode="normal" in="SourceGraphic" in2="effect1_dropShadow" result="shape"/>
</filter>
<filter id="filter3_d" x="98.6769" y="687.677" width="70.3731" height="70.3716" filterUnits="userSpaceOnUse" color-interpolation-filters="sRGB">
<feFlood flood-opacity="0" result="BackgroundImageFix"/>
<feColorMatrix in="SourceAlpha" type="matrix" values="0 0 0 0 0 0 0 0 0 0 0 0 0 0 0 0 0 0 255 0"/>
<feOffset/>
<feGaussianBlur stdDeviation="4.66157"/>
<feColorMatrix type="matrix" values="0 0 0 0 0.00392157 0 0 0 0 0.839216 0 0 0 0 0.8 0 0 0 1 0"/>
<feBlend mode="normal" in2="BackgroundImageFix" result="effect1_dropShadow"/>
<feBlend mode="normal" in="SourceGraphic" in2="effect1_dropShadow" result="shape"/>
</filter>
<filter id="filter4_d" x="1794.64" y="755.642" width="75.8414" height="75.8406" filterUnits="userSpaceOnUse" color-interpolation-filters="sRGB">
<feFlood flood-opacity="0" result="BackgroundImageFix"/>
<feColorMatrix in="SourceAlpha" type="matrix" values="0 0 0 0 0 0 0 0 0 0 0 0 0 0 0 0 0 0 255 0"/>
<feOffset/>
<feGaussianBlur stdDeviation="12.6792"/>
<feColorMatrix type="matrix" values="0 0 0 0 0.462745 0 0 0 0 0.733333 0 0 0 0 0.423529 0 0 0 0.5 0"/>
<feBlend mode="normal" in2="BackgroundImageFix" result="effect1_dropShadow"/>
<feBlend mode="normal" in="SourceGraphic" in2="effect1_dropShadow" result="shape"/>
</filter>
<filter id="filter5_d" x="220.642" y="274.718" width="53.8404" height="53.8396" filterUnits="userSpaceOnUse" color-interpolation-filters="sRGB">
<feFlood flood-opacity="0" result="BackgroundImageFix"/>
<feColorMatrix in="SourceAlpha" type="matrix" values="0 0 0 0 0 0 0 0 0 0 0 0 0 0 0 0 0 0 255 0"/>
<feOffset/>
<feGaussianBlur stdDeviation="7.17899"/>
<feColorMatrix type="matrix" values="0 0 0 0 0.00784314 0 0 0 0 0.666667 0 0 0 0 1 0 0 0 1 0"/>
<feBlend mode="normal" in2="BackgroundImageFix" result="effect1_dropShadow"/>
<feBlend mode="normal" in="SourceGraphic" in2="effect1_dropShadow" result="shape"/>
</filter>
<filter id="filter6_d" x="597.826" y="977.513" width="99.3487" height="93.5953" filterUnits="userSpaceOnUse" color-interpolation-filters="sRGB">
<feFlood flood-opacity="0" result="BackgroundImageFix"/>
<feColorMatrix in="SourceAlpha" type="matrix" values="0 0 0 0 0 0 0 0 0 0 0 0 0 0 0 0 0 0 255 0"/>
<feOffset/>
<feGaussianBlur stdDeviation="12.6792"/>
<feColorMatrix type="matrix" values="0 0 0 0 0.462745 0 0 0 0 0.733333 0 0 0 0 0.423529 0 0 0 0.5 0"/>
<feBlend mode="normal" in2="BackgroundImageFix" result="effect1_dropShadow"/>
<feBlend mode="normal" in="SourceGraphic" in2="effect1_dropShadow" result="shape"/>
</filter>
<filter id="filter7_d" x="15.1774" y="976.653" width="68.6195" height="68.6183" filterUnits="userSpaceOnUse" color-interpolation-filters="sRGB">
<feFlood flood-opacity="0" result="BackgroundImageFix"/>
<feColorMatrix in="SourceAlpha" type="matrix" values="0 0 0 0 0 0 0 0 0 0 0 0 0 0 0 0 0 0 255 0"/>
<feOffset/>
<feGaussianBlur stdDeviation="7.17899"/>
<feColorMatrix type="matrix" values="0 0 0 0 0.00784314 0 0 0 0 0.666667 0 0 0 0 1 0 0 0 1 0"/>
<feBlend mode="normal" in2="BackgroundImageFix" result="effect1_dropShadow"/>
<feBlend mode="normal" in="SourceGraphic" in2="effect1_dropShadow" result="shape"/>
</filter>
<filter id="filter8_d" x="1420.64" y="790.71" width="108.523" height="108.521" filterUnits="userSpaceOnUse" color-interpolation-filters="sRGB">
<feFlood flood-opacity="0" result="BackgroundImageFix"/>
<feColorMatrix in="SourceAlpha" type="matrix" values="0 0 0 0 0 0 0 0 0 0 0 0 0 0 0 0 0 0 255 0"/>
<feOffset/>
<feGaussianBlur stdDeviation="7.17899"/>
<feColorMatrix type="matrix" values="0 0 0 0 0.00784314 0 0 0 0 0.666667 0 0 0 0 1 0 0 0 1 0"/>
<feBlend mode="normal" in2="BackgroundImageFix" result="effect1_dropShadow"/>
<feBlend mode="normal" in="SourceGraphic" in2="effect1_dropShadow" result="shape"/>
</filter>
<radialGradient id="paint0_radial" cx="0.5" cy="0.5" r="0.5" gradientUnits="userSpaceOnUse" gradientTransform="matrix(0 1760.09 -3104.51 0 2571.75 -366.57)">
<stop stop-color="#313E59"/>
<stop offset="1" stop-color="#07080B"/>
</radialGradient>
<radialGradient id="paint1_radial" cx="0.5" cy="0.5" r="0.5" gradientUnits="userSpaceOnUse" gradientTransform="translate(-735.29 69.2597) scale(1169.94 -85.5765)">
<stop stop-color="#007FBD"/>
<stop offset="1" stop-color="#02ABFE"/>
</radialGradient>
<radialGradient id="paint2_radial" cx="0.5" cy="0.5" r="0.5" gradientUnits="userSpaceOnUse" gradientTransform="translate(-375.98 125.874) scale(813.262 -177.036)">
<stop stop-color="#1BDCBA"/>
<stop offset="1" stop-color="#02ABFE"/>
</radialGradient>
<radialGradient id="paint3_radial" cx="0.5" cy="0.5" r="0.5" gradientUnits="userSpaceOnUse" gradientTransform="matrix(-1035.61 7.91963 1.72405 225.439 1064.16 -78.6918)">
<stop stop-color="#1BDCBA"/>
<stop offset="1" stop-color="#02ABFE"/>
</radialGradient>
<radialGradient id="paint4_radial" cx="0.5" cy="0.5" r="0.5" gradientUnits="userSpaceOnUse" gradientTransform="matrix(742.745 42.8807 -340.601 278.696 -117.196 -121.692)">
<stop stop-color="#007FBD"/>
<stop offset="1" stop-color="#02ABFE"/>
</radialGradient>
<radialGradient id="paint5_radial" cx="0.5" cy="0.5" r="0.5" gradientUnits="userSpaceOnUse" gradientTransform="matrix(742.745 42.8807 -340.601 278.696 -117.196 -121.692)">
<stop stop-color="#007FBD"/>
<stop offset="1" stop-color="#02ABFE"/>
</radialGradient>
<radialGradient id="paint6_radial" cx="0.5" cy="0.5" r="0.5" gradientUnits="userSpaceOnUse" gradientTransform="matrix(742.745 42.8807 -340.601 278.696 -117.196 -121.692)">
<stop stop-color="#007FBD"/>
<stop offset="1" stop-color="#02ABFE"/>
</radialGradient>
<radialGradient id="paint7_radial" cx="0.5" cy="0.5" r="0.5" gradientUnits="userSpaceOnUse" gradientTransform="translate(-91.2087 89.7547) scale(197.288 -126.236)">
<stop stop-color="#1BDCBA"/>
<stop offset="1" stop-color="#02ABFE"/>
</radialGradient>
<radialGradient id="paint8_radial" cx="0.5" cy="0.5" r="0.5" gradientUnits="userSpaceOnUse" gradientTransform="matrix(132.79 22.534 -60.8937 146.456 52.2093 -63.6463)">
<stop stop-color="#00FFF4"/>
<stop offset="1" stop-color="#19CCC0"/>
</radialGradient>
<linearGradient id="paint9_linear" x2="1" gradientUnits="userSpaceOnUse" gradientTransform="matrix(0 35.4688 -35.4698 0 35.4698 0)">
<stop stop-color="white"/>
<stop offset="1" stop-color="#99DDFF"/>
</linearGradient>
<linearGradient id="paint10_linear" x2="1" gradientUnits="userSpaceOnUse" gradientTransform="matrix(0 718.906 -1586.18 0 1586.18 0)">
<stop stop-color="#02B3FF"/>
<stop offset="1" stop-color="#028ACF"/>
</linearGradient>
<linearGradient id="paint11_linear" x2="1" gradientUnits="userSpaceOnUse" gradientTransform="matrix(0 51.7253 -51.7268 0 51.7268 0)">
<stop stop-color="#01E1B8"/>
<stop offset="1" stop-color="#01CADF"/>
</linearGradient>
<linearGradient id="paint12_linear" x2="1" gradientUnits="userSpaceOnUse" gradientTransform="matrix(0 25.1237 -25.1244 0 25.1244 0)">
<stop stop-color="#A2CF4E"/>
<stop offset="1" stop-color="#6BBE78"/>
</linearGradient>
<linearGradient id="paint13_linear" x2="1" gradientUnits="userSpaceOnUse" gradientTransform="matrix(0 25.1237 -25.1244 0 25.1244 0)">
<stop stop-color="white"/>
<stop offset="1" stop-color="#99DDFF"/>
</linearGradient>
<linearGradient id="paint14_linear" x2="1" gradientUnits="userSpaceOnUse" gradientTransform="matrix(0 61 -61 0 61 0)">
<stop stop-color="#A2CF4E"/>
<stop offset="1" stop-color="#6BBE78"/>
</linearGradient>
<linearGradient id="paint15_linear" x2="1" gradientUnits="userSpaceOnUse" gradientTransform="matrix(0 39.9023 -39.9035 0 39.9035 0)">
<stop stop-color="white"/>
<stop offset="1" stop-color="#99DDFF"/>
</linearGradient>
<linearGradient id="paint16_linear" x2="1" gradientUnits="userSpaceOnUse" gradientTransform="matrix(0 79.8047 -79.8071 0 79.8071 0)">
<stop stop-color="white"/>
<stop offset="1" stop-color="#99DDFF"/>
</linearGradient>
<clipPath id="clip0">
<rect width="2039" height="1156" fill="white"/>
</clipPath>
</defs>
</svg>
