<svg width="196" height="122" viewBox="0 0 196 122" fill="none" xmlns="http://www.w3.org/2000/svg">
<g id="sw-stack-logo-color">
<g id="text" transform="translate(0 95.0818)">
<path fill-rule="evenodd" clip-rule="evenodd" d="M11.0116 26.9181C7.08164 26.9181 3.11455 25.5349 0 22.7309L3.37405 18.6557C5.70958 20.5998 8.1568 21.8335 11.1228 21.8335C13.4586 21.8335 14.8675 20.8989 14.8675 19.3661V19.2914C14.8675 17.8332 13.9776 17.0854 9.63979 15.9641C4.41207 14.618 1.03801 13.1601 1.03801 7.9633V7.88865C1.03801 3.14058 4.81989 0 10.1219 0C13.9035 0 17.1293 1.19651 19.7617 3.3276L16.7955 7.66418C14.4968 6.05643 12.2351 5.08465 10.0476 5.08465C7.86015 5.08465 6.7107 6.09415 6.7107 7.36531V7.43996C6.7107 9.15955 7.82301 9.72062 12.3094 10.8797C17.574 12.2627 20.5402 14.1693 20.5402 18.7303V18.8053C20.5402 24.0018 16.61 26.9181 11.0116 26.9181Z" fill="white"/>
<path fill-rule="evenodd" clip-rule="evenodd" d="M51.2741 26.7312H46.3059L40.4477 9.60833L34.5898 26.7312H29.6216L20.7603 0.374129H26.878L32.254 18.095L38.0748 0.299216H42.969L48.79 18.095L54.166 0.374129H60.1351L51.2741 26.7312Z" fill="white"/>
<path fill-rule="evenodd" clip-rule="evenodd" d="M62.2821 26.5441H67.992V0.374035H62.2821V26.5441Z" fill="white"/>
<path fill-rule="evenodd" clip-rule="evenodd" d="M91.3837 26.5441V9.45874L84.0797 20.637H83.9314L76.7017 9.57085V26.5441H71.103V0.374099H77.2576L84.0797 11.4403L90.9018 0.374099H97.0564V26.5441H91.3837Z" fill="white"/>
<path fill-rule="evenodd" clip-rule="evenodd" d="M100.167 26.5441V0.374099H105.876V21.3102H118.816L116.738 26.5441H100.167Z" fill="white"/>
<path fill-rule="evenodd" clip-rule="evenodd" d="M133.273 7.10348L129.825 15.5899H136.721L133.273 7.10348ZM141.134 26.5442L138.761 20.6746H127.786L125.413 26.5442H119.592L130.715 0.187178H135.98L147.103 26.5442H141.134Z" fill="white"/>
<path fill-rule="evenodd" clip-rule="evenodd" d="M168.011 26.5441L155.443 9.90717V26.5441H149.807V0.374099H155.072L167.233 16.4872V0.374099H172.868V26.5441H168.011Z" fill="white"/>
<path fill-rule="evenodd" clip-rule="evenodd" d="M176.239 26.5441V0.374099H195.815V5.49595H181.911V10.8046H194.146V15.9267H181.911V21.4223H196V26.5441H176.239Z" fill="white"/>
</g>
<g id="mark">
<path id="Fill 1" fill-rule="evenodd" clip-rule="evenodd" d="M15.6674 0.575142C14.7206 -0.191714 13.3729 -0.191714 12.4261 0.575142L0.9687 9.85362C-0.3229 10.8992 -0.3229 12.8832 0.9687 13.9292L12.8317 23.536C12.8835 23.5778 12.9578 23.5778 13.0095 23.536L28.3767 11.0912C28.4479 11.0337 28.4479 10.9249 28.3767 10.8674L15.6674 0.575142Z" transform="translate(99.0194 23.0797)" fill="#19CCC0"/>
<path id="Fill 23" fill-rule="evenodd" clip-rule="evenodd" d="M2.65829 47.5669L29.5963 25.7522C29.983 25.4391 30.2078 24.9662 30.2078 24.4654V0L0.611924 23.9676C0.225264 24.2803 0 24.7537 0 25.254V46.2805C0 47.6653 1.5885 48.4334 2.65829 47.5669Z" transform="translate(97.3356 34.052)" fill="#00FFF4"/>
<path id="Fill 24" fill-rule="evenodd" clip-rule="evenodd" d="M19.8798 0L4.27657 12.6416L0 9.17789L19.8798 0Z" transform="translate(107.663 34.0461)" fill="#27AFA2"/>
<path id="Fill 25" fill-rule="evenodd" clip-rule="evenodd" d="M12.7627 22.9921C13.7095 23.7589 15.0572 23.7589 16.004 22.9921L27.4614 13.7136C28.753 12.668 28.753 10.6841 27.4614 9.6385L15.5983 0.0316802C15.5466 -0.0105601 15.4723 -0.0105601 15.4206 0.0316802L0.0534031 12.4764C-0.017801 12.5335 -0.017801 12.6423 0.0534031 12.6998L12.7627 22.9921Z" transform="translate(74.1259 35.3384)" fill="#028ACF"/>
<path id="Fill 26" fill-rule="evenodd" clip-rule="evenodd" d="M27.5495 0.366229L0.611493 22.1809C0.224833 22.494 0 22.9674 0 23.4677V47.9331L29.5959 23.9659C29.9826 23.6528 30.2078 23.1794 30.2078 22.6791V1.65303C30.2078 0.268249 28.6193 -0.50035 27.5495 0.366229Z" transform="translate(74.0326)" fill="#02AAFF"/>
<path id="Fill 27" fill-rule="evenodd" clip-rule="evenodd" d="M0 12.6412L15.6032 0L19.8798 3.46326L0 12.6412Z" transform="translate(74.0322 35.2983)" fill="#0578A5"/>
</g>
</g>
</svg>
